<svg  viewBox="0 0 426 118" fill="none" xmlns="http://www.w3.org/2000/svg">
    <path
        d="M40.4819 117.514V102.204H46.4519C47.3619 102.204 48.1519 102.394 48.7919 102.764C49.4419 103.144 49.9319 103.634 50.2819 104.244C50.6219 104.854 50.8019 105.514 50.8019 106.224C50.8019 107.054 50.5919 107.784 50.1619 108.404C49.7319 109.024 49.1619 109.454 48.4419 109.694L48.4219 109.174C49.4119 109.434 50.1719 109.924 50.7219 110.624C51.2719 111.324 51.5419 112.164 51.5419 113.134C51.5419 114.024 51.3619 114.804 50.9919 115.454C50.6219 116.104 50.1019 116.614 49.4219 116.974C48.7419 117.334 47.9319 117.514 46.9919 117.514H40.4819ZM42.4019 108.594H46.4319C46.8819 108.594 47.2919 108.494 47.6619 108.304C48.0319 108.104 48.3219 107.834 48.5319 107.484C48.7519 107.134 48.8519 106.714 48.8519 106.244C48.8519 105.584 48.6319 105.044 48.1819 104.624C47.7319 104.204 47.1519 103.994 46.4319 103.994H42.4019V108.594ZM42.4019 115.704H46.6219C47.1919 115.704 47.6919 115.594 48.1419 115.394C48.5919 115.184 48.9419 114.884 49.2019 114.504C49.4619 114.124 49.5919 113.664 49.5919 113.124C49.5919 112.604 49.4719 112.144 49.2419 111.734C49.0119 111.324 48.6919 110.994 48.2719 110.754C47.8619 110.514 47.3819 110.384 46.8319 110.384H42.4019V115.704Z"
        fill="white" />
    <path
        d="M65.2618 117.834C63.7418 117.834 62.4418 117.494 61.3818 116.824C60.3218 116.154 59.5118 115.214 58.9518 114.014C58.3918 112.814 58.1218 111.434 58.1218 109.854C58.1218 108.274 58.4018 106.894 58.9518 105.694C59.5118 104.494 60.3218 103.564 61.3818 102.884C62.4418 102.214 63.7418 101.874 65.2618 101.874C66.7918 101.874 68.0918 102.214 69.1518 102.884C70.2118 103.554 71.0218 104.494 71.5718 105.694C72.1218 106.894 72.4018 108.274 72.4018 109.854C72.4018 111.434 72.1218 112.814 71.5718 114.014C71.0218 115.214 70.2118 116.144 69.1518 116.824C68.0918 117.494 66.7918 117.834 65.2618 117.834ZM65.2618 116.024C66.4018 116.034 67.3518 115.774 68.1118 115.254C68.8718 114.734 69.4418 114.004 69.8218 113.084C70.2018 112.154 70.3918 111.084 70.3918 109.864C70.3918 108.634 70.2018 107.564 69.8218 106.644C69.4418 105.724 68.8718 105.004 68.1118 104.484C67.3518 103.964 66.4018 103.704 65.2618 103.694C64.1218 103.684 63.1718 103.944 62.4218 104.464C61.6618 104.984 61.1018 105.704 60.7118 106.634C60.3318 107.564 60.1318 108.644 60.1218 109.864C60.1118 111.084 60.3018 112.154 60.6818 113.074C61.0618 113.994 61.6318 114.714 62.4018 115.234C63.1618 115.754 64.1218 116.014 65.2618 116.024Z"
        fill="white" />
    <path
        d="M85.882 117.834C84.702 117.834 83.652 117.594 82.742 117.104C81.832 116.614 81.122 115.934 80.612 115.044C80.102 114.164 79.842 113.124 79.842 111.934V102.214L81.752 102.204V111.774C81.752 112.494 81.872 113.124 82.122 113.664C82.362 114.204 82.692 114.644 83.092 114.994C83.492 115.344 83.942 115.614 84.422 115.784C84.902 115.954 85.392 116.044 85.872 116.044C86.362 116.044 86.852 115.954 87.342 115.774C87.832 115.594 88.272 115.334 88.672 114.984C89.072 114.634 89.392 114.194 89.632 113.654C89.872 113.114 89.992 112.484 89.992 111.774V102.204H91.902V111.934C91.902 113.114 91.642 114.154 91.132 115.034C90.622 115.924 89.912 116.604 89.002 117.094C88.112 117.584 87.072 117.834 85.882 117.834Z"
        fill="white" />
    <path d="M104.162 117.514V104.004H98.9419V102.204H111.272V104.004H106.052V117.514H104.162Z"
        fill="white" />
    <path d="M118.512 117.514V102.204H120.402V117.514H118.512Z" fill="white" />
    <path
        d="M135.202 117.834C133.682 117.834 132.382 117.494 131.322 116.824C130.262 116.154 129.452 115.214 128.892 114.014C128.332 112.814 128.062 111.434 128.062 109.854C128.062 108.274 128.342 106.894 128.892 105.694C129.442 104.494 130.262 103.564 131.322 102.884C132.382 102.214 133.682 101.874 135.202 101.874C136.732 101.874 138.032 102.214 139.092 102.884C140.152 103.554 140.962 104.494 141.512 105.694C142.062 106.894 142.342 108.274 142.342 109.854C142.342 111.434 142.062 112.814 141.512 114.014C140.962 115.214 140.152 116.144 139.092 116.824C138.032 117.494 136.732 117.834 135.202 117.834ZM135.202 116.024C136.342 116.034 137.292 115.774 138.052 115.254C138.812 114.734 139.382 114.004 139.762 113.084C140.142 112.154 140.332 111.084 140.332 109.864C140.332 108.634 140.142 107.564 139.762 106.644C139.382 105.724 138.812 105.004 138.052 104.484C137.292 103.964 136.342 103.704 135.202 103.694C134.062 103.684 133.112 103.944 132.362 104.464C131.602 104.984 131.042 105.704 130.652 106.634C130.272 107.564 130.072 108.644 130.062 109.864C130.052 111.084 130.242 112.154 130.622 113.074C131.002 113.994 131.572 114.714 132.342 115.234C133.112 115.754 134.062 116.014 135.202 116.024ZM140.922 117.824L136.742 113.664L137.982 112.414L142.142 116.574L140.922 117.824Z"
        fill="white" />
    <path
        d="M155.832 117.834C154.652 117.834 153.602 117.594 152.692 117.104C151.782 116.614 151.072 115.934 150.562 115.044C150.052 114.164 149.792 113.124 149.792 111.934V102.214L151.702 102.204V111.774C151.702 112.494 151.822 113.124 152.072 113.664C152.312 114.204 152.642 114.644 153.042 114.994C153.442 115.344 153.892 115.614 154.372 115.784C154.852 115.954 155.342 116.044 155.822 116.044C156.312 116.044 156.802 115.954 157.292 115.774C157.782 115.594 158.222 115.334 158.622 114.984C159.022 114.634 159.342 114.194 159.582 113.654C159.822 113.114 159.942 112.484 159.942 111.774V102.204H161.852V111.934C161.852 113.114 161.592 114.154 161.082 115.034C160.572 115.924 159.862 116.604 158.952 117.094C158.062 117.584 157.012 117.834 155.832 117.834Z"
        fill="white" />
    <path
        d="M170.162 117.514V102.204H179.842V104.004H172.062V108.794H178.572V110.594H172.062V115.714H179.842V117.514H170.162Z"
        fill="white" />
    <path
        d="M197.272 117.514V102.204H201.992C202.152 102.204 202.422 102.204 202.812 102.214C203.202 102.224 203.572 102.254 203.932 102.304C205.112 102.464 206.102 102.894 206.902 103.594C207.702 104.304 208.302 105.194 208.702 106.274C209.102 107.364 209.312 108.554 209.312 109.854C209.312 111.164 209.112 112.354 208.702 113.434C208.302 114.524 208.302 115.414 206.902 116.124C206.102 116.834 205.112 117.264 203.932 117.414C203.582 117.454 203.202 117.484 202.812 117.494C202.422 117.504 202.142 117.514 202.002 117.514H197.272ZM199.222 115.704H201.992C202.262 115.704 202.562 115.694 202.892 115.674C203.222 115.654 203.512 115.624 203.762 115.584C204.602 115.424 205.272 115.074 205.792 114.534C206.312 113.984 206.692 113.304 206.932 112.494C207.172 111.684 207.292 110.804 207.292 109.854C207.292 108.894 207.172 108.004 206.922 107.184C206.682 106.364 206.292 105.694 205.782 105.154C205.262 104.614 204.592 104.274 203.762 104.124C203.512 104.074 203.222 104.044 202.882 104.024C202.542 104.014 202.242 104.004 201.992 104.004H199.222V115.704Z"
        fill="white" />
    <path
        d="M217.072 117.514V102.204H226.752V104.004H218.972V108.794H225.482V110.594H218.972V115.714H226.752V117.514H217.072Z"
        fill="white" />
    <path
        d="M234.622 117.514V102.204H236.532L244.512 114.164V102.204H246.422V117.514H244.512L236.532 105.544V117.514H234.622Z"
        fill="white" />
    <path d="M258.672 117.514V104.004H253.452V102.204H265.782V104.004H260.562V117.514H258.672Z"
        fill="white" />
    <path
        d="M271.312 117.514L276.442 102.204H279.082L284.212 117.514H282.242L277.442 103.314H278.042L273.292 117.514H271.312ZM273.782 113.924V112.144H281.732V113.924H273.782Z"
        fill="white" />
    <path d="M291.642 117.514V102.204H293.532V115.714H300.632V117.514H291.642Z" fill="white" />
    <path
        d="M322.562 117.834C321.042 117.834 319.742 117.494 318.682 116.824C317.622 116.154 316.812 115.214 316.252 114.014C315.692 112.814 315.422 111.434 315.422 109.854C315.422 108.274 315.702 106.894 316.252 105.694C316.802 104.494 317.622 103.564 318.682 102.884C319.742 102.214 321.042 101.874 322.562 101.874C324.332 101.874 325.792 102.324 326.942 103.224C328.092 104.124 328.872 105.334 329.312 106.864L327.382 107.374C327.072 106.234 326.512 105.334 325.712 104.674C324.912 104.014 323.862 103.684 322.562 103.684C321.422 103.684 320.472 103.944 319.712 104.464C318.952 104.984 318.382 105.704 318.002 106.624C317.622 107.554 317.422 108.624 317.422 109.854C317.412 111.074 317.602 112.144 317.982 113.074C318.362 114.004 318.942 114.724 319.702 115.244C320.472 115.764 321.422 116.024 322.562 116.024C323.862 116.024 324.912 115.694 325.712 115.034C326.512 114.374 327.072 113.474 327.382 112.334L329.312 112.844C328.882 114.364 328.092 115.574 326.942 116.474C325.792 117.374 324.332 117.834 322.562 117.834Z"
        fill="white" />
    <path d="M337.172 117.514V102.204H339.062V115.714H346.162V117.514H337.172Z" fill="white" />
    <path d="M353.502 117.514V102.204H355.392V117.514H353.502Z" fill="white" />
    <path
        d="M363.902 117.514V102.204H365.812L373.792 114.164V102.204H375.702V117.514H373.792L365.812 105.544V117.514H363.902Z"
        fill="white" />
    <path d="M384.222 117.514V102.204H386.112V117.514H384.222Z" fill="white" />
    <path
        d="M400.912 117.834C399.392 117.834 398.092 117.494 397.032 116.824C395.972 116.154 395.162 115.214 394.602 114.014C394.042 112.814 393.772 111.434 393.772 109.854C393.772 108.274 394.052 106.894 394.602 105.694C395.152 104.494 395.972 103.564 397.032 102.884C398.092 102.214 399.392 101.874 400.912 101.874C402.682 101.874 404.142 102.324 405.292 103.224C406.432 104.124 407.222 105.334 407.662 106.864L405.732 107.374C405.422 106.234 404.862 105.334 404.062 104.674C403.262 104.014 402.212 103.684 400.912 103.684C399.772 103.684 398.822 103.944 398.062 104.464C397.302 104.984 396.732 105.704 396.352 106.624C395.972 107.544 395.772 108.624 395.772 109.854C395.762 111.074 395.952 112.144 396.332 113.074C396.712 114.004 397.292 114.724 398.052 115.244C398.822 115.764 399.772 116.024 400.912 116.024C402.212 116.024 403.262 115.694 404.062 115.034C404.862 114.374 405.422 113.474 405.732 112.334L407.662 112.844C407.232 114.364 406.442 115.574 405.292 116.474C404.142 117.374 402.682 117.834 400.912 117.834Z"
        fill="white" />
    <path
        d="M0.141882 66.0941C-0.468118 68.0741 0.961882 70.1141 3.03188 70.1841C9.02188 70.4041 15.0319 70.5041 21.0819 70.5041C52.3719 70.5041 84.1919 67.0741 115.112 62.3941C120.892 61.5141 127.062 59.7841 130.612 54.7641C134.262 49.6041 134.782 42.3741 131.882 36.7641C124.022 21.3941 105.972 16.6541 95.9219 15.2041C90.2819 14.2441 84.4319 13.6741 78.0519 13.4741C80.2219 10.3741 81.9619 7.81409 83.5119 5.44409C83.8619 4.91409 83.7319 4.20409 83.2119 3.83409C82.5119 3.31409 81.5219 3.4441 80.9619 4.1241C78.8119 6.7541 76.6519 9.36409 74.4919 11.9741L73.7419 12.8841C73.4719 13.2041 73.0819 13.3941 72.6619 13.3941C58.2519 13.4141 43.7319 15.2441 28.8819 17.2941L28.5919 17.3341L28.8619 19.4141L29.1519 19.3741C42.9419 17.7241 56.4319 16.2341 69.7719 16.2341C70.0619 16.2341 70.4119 16.1741 70.5419 16.4341C70.6019 16.5641 70.5819 16.6941 70.4919 16.8041C65.2919 23.0541 60.5819 28.6541 56.0819 33.9241C50.7819 40.1441 44.5319 47.8041 36.9919 57.3541L33.9019 61.3341C33.4119 61.9541 32.8519 62.6641 32.4519 63.4741C32.1919 63.9941 31.7019 64.3141 31.1619 64.3141C21.9719 64.3441 12.5119 64.5541 3.32188 63.8141C1.92188 63.7041 0.62188 64.5541 0.20188 65.9041L0.141882 66.0941ZM127.092 52.2741C123.802 56.6441 117.902 56.9441 112.952 57.7241C106.062 58.8041 99.1419 59.7641 92.2119 60.5841C75.4219 62.5741 58.3619 64.1941 41.4419 64.1941C41.2019 64.1641 40.9919 64.0741 40.8819 63.8641C40.7719 63.6541 40.7919 63.4141 40.9319 63.2241C43.4119 59.8341 47.1519 54.8041 48.2419 53.3441C50.2819 50.6641 52.3719 47.9441 54.4819 45.1841C61.5419 35.9841 68.8419 26.4641 75.5919 16.9841C75.8519 16.6141 76.2719 16.3941 76.7219 16.3941C76.7419 16.3941 76.7619 16.3941 76.7819 16.3941C83.4219 16.6741 89.4919 17.3441 95.3419 18.4441C103.832 19.9741 116.032 23.0541 123.862 32.1241C128.902 37.2041 132.062 45.6741 127.092 52.2741Z"
        fill="white" />
    <path
        d="M190.212 59.0341C187.272 59.1541 184.302 59.4041 181.422 59.6341C175.492 60.1241 169.352 60.6341 163.292 60.0341H163.272C161.302 59.9841 159.202 59.7041 156.972 59.4141C151.992 58.7641 146.852 58.0841 142.752 59.8941L142.792 59.7541C142.942 59.1941 143.092 58.6441 143.242 58.0841C143.392 57.5541 143.312 56.9941 143.032 56.5241C142.752 56.0641 142.312 55.7341 141.782 55.6141L141.202 55.4741C140.612 55.4741 140.032 55.4241 139.562 55.7341C139.122 56.0141 138.812 56.4541 138.712 56.9741C138.072 60.0541 137.272 63.6941 136.742 66.0341C136.292 67.1741 135.952 68.3941 135.732 69.6841C135.542 70.7341 136.252 71.7541 137.352 71.9841C137.482 72.0141 137.622 72.0241 137.752 72.0241C138.652 72.0241 139.452 71.4141 139.672 70.5141L140.052 68.9741C140.242 68.4241 140.462 67.7841 140.742 67.1541L141.072 65.9641C142.492 63.7041 145.952 61.5341 149.612 61.9041C150.632 61.9841 151.672 62.0641 152.722 62.1441C156.142 62.4141 159.682 62.6941 163.142 62.8141C169.342 63.2141 175.602 62.5341 181.662 61.8841C184.512 61.5741 187.452 61.2641 190.342 61.0641L190.632 61.0441L190.512 59.0341H190.212Z"
        fill="white" />
    <path
        d="M425.542 64.154L425.532 64.124C424.192 61.224 421.522 59.314 418.902 57.604C414.632 54.964 410.202 53.354 405.732 52.814C397.002 51.804 387.652 55.034 380.092 61.694L379.872 61.884L381.002 63.204L381.222 63.024C392.172 54.024 406.632 52.904 417.252 60.294C419.222 61.654 422.172 63.694 422.542 65.904C422.542 65.904 422.542 65.904 422.542 65.914C422.522 65.944 422.502 65.974 422.332 66.034C420.552 66.644 418.612 66.594 416.552 66.554C415.952 66.544 415.352 66.534 414.752 66.534C412.382 66.454 409.932 66.344 407.462 66.244C403.152 66.054 398.702 65.864 394.542 65.794C386.192 65.574 377.682 65.744 369.452 65.914C364.432 66.014 359.232 66.124 354.152 66.134H354.072C353.482 66.094 352.832 66.074 352.162 66.054C348.952 65.954 344.952 65.824 343.342 63.574C343.032 63.134 343.232 61.624 343.812 60.054C344.102 59.284 344.832 58.744 345.672 58.694C351.322 58.344 356.862 57.374 362.132 55.814C362.432 55.714 362.742 55.624 363.052 55.524C364.342 55.144 365.812 54.714 366.882 53.424C367.322 52.844 367.462 52.174 367.282 51.504C366.982 50.384 365.842 49.384 364.872 48.974C359.002 46.334 349.912 45.314 343.592 51.154C342.112 52.584 340.872 54.294 340.012 56.084C339.932 56.254 339.772 56.354 339.592 56.364C333.732 56.554 327.742 56.114 321.802 55.084L321.522 55.034L321.262 56.234L321.532 56.304C326.922 57.764 332.632 58.604 338.502 58.794C338.652 58.794 338.772 58.854 338.852 58.964C338.902 59.034 338.952 59.144 338.922 59.304C338.372 61.954 338.772 64.324 340.062 66.144C341.462 68.124 343.812 69.344 347.052 69.774C351.072 70.094 355.112 70.214 359.142 70.214C363.942 70.214 368.732 70.054 373.422 69.894C380.322 69.664 387.452 69.414 394.482 69.694C398.862 69.784 410.482 70.014 414.702 70.094C415.082 70.084 415.512 70.084 415.992 70.094C419.062 70.114 423.712 70.124 425.332 67.864C425.992 66.904 426.062 65.664 425.542 64.154ZM361.542 51.964C361.542 52.034 361.532 52.264 361.282 52.354C356.352 54.184 350.922 55.414 345.142 55.994C345.032 56.014 345.002 55.944 344.982 55.914C344.972 55.894 344.932 55.804 344.992 55.704C347.352 52.554 351.222 50.774 355.582 50.774C356.162 50.774 356.752 50.804 357.352 50.874H357.362C358.782 51.004 360.122 51.244 361.242 51.574C361.452 51.634 361.532 51.814 361.542 51.964Z"
        fill="white" />
    <path
        d="M383.992 0.774025C383.632 0.314025 383.092 0.0340209 382.492 0.0040209C381.822 -0.0359791 381.162 0.224028 380.682 0.714028C363.602 18.024 342.732 34.714 316.892 51.744C310.312 56.084 303.482 59.744 296.582 62.624C291.962 64.554 287.002 66.284 281.952 65.914C280.412 65.804 276.692 65.224 275.332 62.354C274.472 60.554 274.842 58.394 275.362 56.344C275.962 53.974 276.722 51.564 277.612 49.194C278.462 46.934 279.462 44.634 280.582 42.344C281.642 40.184 282.842 37.974 284.162 35.764C285.022 34.324 286.332 32.114 288.242 29.424C288.992 28.364 290.182 26.744 293.562 22.714C296.612 19.064 298.142 17.234 299.952 15.294C301.772 13.334 307.422 7.38403 307.362 4.82403C307.352 4.56403 307.342 3.86402 306.852 3.42402C306.292 2.92402 305.452 3.05402 305.232 3.08402C303.892 3.29402 303.042 4.42403 302.412 5.24403C301.252 6.73403 299.942 8.10402 298.692 9.52402C296.192 12.364 293.672 15.184 291.122 17.984C288.572 20.784 285.992 23.554 283.382 26.304C280.772 29.054 278.142 31.784 275.482 34.484C272.822 37.184 270.132 39.864 267.422 42.514C264.712 45.164 261.972 47.784 259.212 50.384C256.452 52.974 253.672 55.544 250.862 58.084C249.002 59.774 247.122 61.444 245.242 63.104C244.002 64.194 242.602 65.434 242.462 67.364C242.382 68.394 242.862 69.384 243.672 69.864C244.082 70.104 244.492 70.214 244.902 70.214C246.042 70.214 247.142 69.394 248.032 68.594C259.082 58.694 269.762 48.144 279.802 37.204C276.592 43.114 274.192 49.424 272.642 55.974C271.692 59.994 271.122 64.514 276.452 67.304C278.102 68.174 280.072 68.594 282.122 68.604C294.442 68.504 305.342 62.334 315.452 56.014C339.492 40.974 362.202 23.564 382.952 4.25402C384.742 2.56402 384.502 1.43403 383.992 0.774025Z"
        fill="white" />
    <path
        d="M196.382 69.0541C195.172 68.7441 193.782 69.1741 193.032 69.7541C192.632 70.0741 192.422 70.4141 192.422 70.7541C192.422 71.0441 192.582 71.3341 192.882 71.5941C193.522 72.1541 194.682 72.5041 195.752 72.5041C195.952 72.5041 196.152 72.4941 196.342 72.4641C196.552 72.4341 198.362 72.1641 198.532 71.1441C198.702 70.1941 197.372 69.3041 196.382 69.0541Z"
        fill="white" />
</svg>
